<?xml version="1.0" encoding="UTF-8"?>
<svg width="249px" height="93px" viewBox="0 0 249 93" version="1.1" xmlns="http://www.w3.org/2000/svg" xmlns:xlink="http://www.w3.org/1999/xlink">
    <!-- Generator: Sketch 54.1 (76490) - https://sketchapp.com -->
    <title>DStv Now logo/white</title>
    <desc>Created with Sketch.</desc>
    <g id="DStv-Now-logo/white" stroke="none" stroke-width="1" fill="none" fill-rule="evenodd">
        <g id="DStvNow_Logo">
            <path d="M28.18,5 L20.68,5 C20.0448725,5 19.53,5.51487254 19.53,6.15 L19.53,40 C19.5299884,40.3067395 19.6525205,40.6007722 19.870355,40.8167289 C20.0881895,41.0326855 20.3832721,41.1526673 20.69,41.15 L28.18,41.15 C46.62,41.15 56.54,33.55 56.54,23.06 C56.54,12.57 46.71,5 28.18,5 Z" id="Shape"></path>
            <path d="M181.35,18.06 C180.908948,17.5732757 180.303411,17.266945 179.65,17.2 L160.65,17.2 C160.050143,17.2418186 159.583773,17.738699 159.58,18.34 L159.58,36.45 C159.58,39.96 160.66,41.26 165.21,41.26 L197.9,41.26 C198.51,41.26 198.71,40.87 198.38,40.39 L181.35,18.06 Z" id="Shape"></path>
            <path d="M181.35,18.06 C180.908948,17.5732757 180.303411,17.266945 179.65,17.2 L160.65,17.2 C160.050143,17.2418186 159.583773,17.738699 159.58,18.34 L159.58,36.45 C159.58,39.96 160.66,41.26 165.21,41.26 L197.9,41.26 C198.51,41.26 198.71,40.87 198.38,40.39 L181.35,18.06 Z" id="Shape"></path>
            <path d="M28.18,5 L20.68,5 C20.0448725,5 19.53,5.51487254 19.53,6.15 L19.53,40 C19.5299884,40.3067395 19.6525205,40.6007722 19.870355,40.8167289 C20.0881895,41.0326855 20.3832721,41.1526673 20.69,41.15 L28.18,41.15 C46.62,41.15 56.54,33.55 56.54,23.06 C56.54,12.57 46.71,5 28.18,5 Z" id="Shape"></path>
            <path d="M43.12,74.38 C39.34,74.38 39.18,76.57 39.18,81.38 C39.18,86.19 39.34,88.32 43.12,88.32 C46.9,88.32 47.06,86.13 47.06,81.38 C47.06,76.63 46.86,74.38 43.12,74.38 Z" id="Shape"></path>
            <path d="M247.75,12.4 L242.32,12.4 C241.61201,12.4814827 240.954423,12.8067407 240.46,13.32 L219.83,40.32 C219.685196,40.5600264 219.425323,40.7067507 219.145,40.7067507 C218.864677,40.7067507 218.604804,40.5600264 218.46,40.32 L199.41,13.32 C198.903544,12.7121458 198.151165,12.363482 197.36,12.37 L160.76,12.37 C160.124873,12.37 159.61,11.8551275 159.61,11.22 L159.61,2.3 C159.60465,1.03974323 158.590162,0.0163557646 157.33,-1.34493924e-15 L101.28,-1.34493924e-15 C92.6,0.29 88.89,1.16 84.92,3.48 C81.26,5.62666667 79.43,8.34 79.43,11.62 C79.43,15.0933333 82.2633333,18.5166667 87.93,21.89 C89.39,22.7633333 94.63,25.2866667 103.65,29.46 C109.32,32.08 112.37,34.23 112.15,36.36 C111.81,39.78 108.7,40.96 101.28,40.96 L67.4,40.96 C66.58,40.96 65.91,40.82 65.91,40.17 C65.9341908,39.8210328 66.1389694,39.5100727 66.45,39.35 L66.45,39.35 C74,34.79 76.53,28.63 76.53,23 C76.53,12.55 67.74,-1.08847122e-15 32.75,-1.08847122e-15 L2.33,-1.08847122e-15 C1.71389198,-0.00533446892 1.12118334,0.235682837 0.683639031,0.669471404 C0.246094719,1.10325997 -2.30933737e-05,1.69386889 0,2.31 L0,43.82 C0.00550598571,45.0918708 1.03811729,46.1200119 2.31,46.12 L32.75,46.12 C33.91,46.12 35.0366667,46.12 36.13,46.12 L112.22,46.12 C119.166667,46.12 124.6,44.9733333 128.52,42.68 C132.14,40.55 133.95,37.86 133.95,34.56 C133.95,31.1 131.116667,27.6866667 125.45,24.32 C123.996667,23.4466667 118.753333,20.91 109.72,16.71 C104.053333,14.09 101.22,11.9733333 101.22,10.36 C101.22,6.89 104.89,5.21 112.22,5.21 L137.94,5.21 C138.246728,5.2073327 138.54181,5.32731453 138.759645,5.54327115 C138.977479,5.75922776 139.100012,6.05326049 139.1,6.36 L139.1,36.48 C139.1,40.9 142.02,46.11 150.88,46.11 L221.58,46.11 C222.534665,46.1190512 223.446464,45.7142121 224.08,45 L248.3,13.16 C248.3,13.16 248.85,12.4 247.75,12.4 Z M28.18,41.13 L20.69,41.13 C20.0626017,41.1300949 19.5509113,40.6273034 19.54,40 L19.54,6.13 C19.5509113,5.50269663 20.0626017,4.99990511 20.69,5 L28.19,5 C46.71,5 56.54,12.59 56.54,23 C56.54,33.41 46.62,41.13 28.18,41.13 Z M197.9,41.25 L165.24,41.25 C160.7,41.25 159.61,39.95 159.61,36.44 L159.61,18.34 C159.613773,17.738699 160.080143,17.2418186 160.68,17.2 L179.68,17.2 C180.333411,17.266945 180.938948,17.5732757 181.38,18.06 L198.38,40.39 C198.71,40.87 198.51,41.26 197.9,41.26 L197.9,41.25 Z" id="Shape" fill="#FFFFFF" fill-rule="nonzero"></path>
            <path d="M27,62 L22.25,62 C21.76,62 21.36,62.12 21.36,62.69 L21.68,88.19 L21,88.19 L12.42,62.57 C12.3026475,62.2240979 11.9752122,61.9936805 11.61,62 L0.69,62 C0.334553829,61.9879729 0.0316457961,62.2557611 0,62.61 L0,91.4 C0.00238044705,91.5672138 0.0733055865,91.7261177 0.196187335,91.8395471 C0.319069083,91.9529764 0.483130268,92.0109829 0.65,92 L6,92 C6.1685938,92.0110796 6.33423144,91.9517372 6.45743308,91.8361172 C6.58063472,91.7204972 6.65036367,91.5589571 6.65,91.39 L6.21,67 L7.47,67 L15.88,91.32 C15.9575584,91.6874159 16.2747791,91.9551996 16.65,91.97 L27.29,91.97 C27.4609779,91.9955145 27.6348441,91.9484868 27.7696483,91.8402637 C27.9044526,91.7320406 27.987952,91.5724508 28,91.4 L28,62.73 C28,62.12 27.57,62 27,62 Z" id="Shape" fill="#6CDFF6" fill-rule="nonzero"></path>
            <path d="M43.12,70.16 C33.94,70.16 32.81,75.07 32.81,81.37 C32.81,87.67 33.95,92.54 43.12,92.54 C52.29,92.54 53.43,87.63 53.43,81.37 C53.43,75.11 52.26,70.16 43.12,70.16 Z M43.12,88.31 C39.34,88.31 39.18,86.12 39.18,81.37 C39.18,76.62 39.34,74.37 43.12,74.37 C46.9,74.37 47.06,76.56 47.06,81.37 C47.06,86.18 46.86,88.31 43.12,88.31 Z" id="Shape" fill="#6CDFF6" fill-rule="nonzero"></path>
            <path d="M89.18,70.69 L84.76,70.69 C84.27,70.69 83.95,70.81 83.87,71.38 L81.35,88.11 L80.25,88.11 L77.53,72.44 C77.4787882,72.0574988 77.1456709,71.7762959 76.76,71.79 L69.08,71.79 C68.6943291,71.7762959 68.3612118,72.0574988 68.31,72.44 L65.67,88.11 L64.57,88.11 L61.82,71.38 C61.7,70.81 61.41,70.69 60.89,70.69 L56.21,70.69 C56.0054111,70.676681 55.8054948,70.7550329 55.6644385,70.9038183 C55.5233821,71.0526037 55.4557963,71.2564117 55.48,71.46 L55.48,71.7 L59.82,91.35 C59.8652573,91.7194107 60.1778343,91.9977326 60.55,92 L69.08,92 C69.4574823,92.0119736 69.7782739,91.7263373 69.81,91.35 L72.73,76.35 L72.73,76.35 L75.53,91.35 C75.5972339,91.7234842 75.9205295,91.9963961 76.3,92 L84.83,92 C85.2021657,91.9977326 85.5147427,91.7194107 85.56,91.35 L90,71.7 L90,71.46 C90.0174165,71.2418563 89.9346761,71.0276319 89.7751472,70.8778303 C89.6156182,70.7280287 89.3966184,70.6589117 89.18,70.69 L89.18,70.69 Z" id="Shape" fill="#6CDFF6" fill-rule="nonzero"></path>
        </g>
    </g>
</svg>